<svg xmlns="http://www.w3.org/2000/svg" xmlns:xlink="http://www.w3.org/1999/xlink" width="24" height="24" viewBox="0 0 24 24">
  <defs>
    <clipPath id="clip-Carpentry">
      <rect width="24" height="24"/>
    </clipPath>
  </defs>
  <g id="Carpentry" clip-path="url(#clip-Carpentry)">
    <g id="jigsaw" transform="translate(1 -3.491)">
      <g id="Group_1632" data-name="Group 1632" transform="translate(0 4.491)">
        <g id="Group_1631" data-name="Group 1631">
          <path id="Path_2472" data-name="Path 2472" d="M108.986,329.431V327.86h-2.357v1.571H105l1.049-1.571h-.943l-1.049,1.571H98.525l-1.831-1.571h-1.21l2.64,2.263a.4.4,0,0,0,.255.094h8.25v4.321a1.182,1.182,0,0,0,1.179,1.179h.393a.788.788,0,0,0,.786-.786v-4.714H113.7v-.786Z" transform="translate(-91.308 -313.717)"/>
          <path id="Path_2473" data-name="Path 2473" d="M265.992,220.07h-5.107a.393.393,0,0,0-.393.393v1.179a.393.393,0,0,0,.393.393h5.107a.393.393,0,0,0,.393-.393v-1.179A.393.393,0,0,0,265.992,220.07Z" transform="translate(-249.099 -210.641)"/>
          <path id="Path_2474" data-name="Path 2474" d="M19.25,16.669V13.181a3.724,3.724,0,0,0-.086-.782L17.572,5.41a1.169,1.169,0,0,0-1.147-.919H11.719a3.592,3.592,0,0,0-1.253.228L.762,8.4A1.182,1.182,0,0,0,0,9.5v7.166a1.182,1.182,0,0,0,1.179,1.179H18.071A1.182,1.182,0,0,0,19.25,16.669ZM2.357,16.276a.393.393,0,0,1-.786,0v-2.75a.393.393,0,0,1,.786,0Zm-.786-5.119v0a1.189,1.189,0,0,1,.8-1.124L11.31,6.923a1.113,1.113,0,0,1,.409-.075h.067a1.182,1.182,0,0,1,1.179,1.179v2.357A1.965,1.965,0,0,1,11,12.348H2.762A1.192,1.192,0,0,1,1.571,11.158Zm2.357,5.119a.393.393,0,0,1-.786,0v-2.75a.393.393,0,0,1,.786,0Zm1.571,0a.393.393,0,0,1-.786,0v-2.75a.393.393,0,0,1,.786,0Zm1.571,0a.393.393,0,0,1-.786,0v-2.75a.393.393,0,0,1,.786,0Zm9.821.393H11.786a1.182,1.182,0,0,1-1.179-1.179V14.312a1.182,1.182,0,0,1,1.179-1.179h5.107a1.182,1.182,0,0,1,1.179,1.179v1.179A1.182,1.182,0,0,1,16.893,16.669Z" transform="translate(0 -4.491)"/>
        </g>
      </g>
    </g>
  </g>
</svg>
