<?xml version="1.0" encoding="utf-8"?>
<!-- Generator: Adobe Illustrator 24.0.2, SVG Export Plug-In . SVG Version: 6.00 Build 0)  -->
<svg version="1.1" id="Layer_1" xmlns="http://www.w3.org/2000/svg" xmlns:xlink="http://www.w3.org/1999/xlink" x="0px" y="0px"
	 viewBox="0 0 24 24" style="enable-background:new 0 0 24 24;" xml:space="preserve">
<style type="text/css">
	.st0{clip-path:url(#SVGID_2_);}
	.st1{fill:#8D0300;}
	.st2{fill:#FFA000;}
</style>
<g>
	<defs>
		<rect id="SVGID_1_" width="24" height="24"/>
	</defs>
	<clipPath id="SVGID_2_">
		<use xlink:href="#SVGID_1_"  style="overflow:visible;"/>
	</clipPath>
	<g id="like" class="st0">
		<g id="like-2" transform="translate(2.216 0.975)">
			<g id="Group_1918" transform="translate(0 4.044)">
				<g id="Group_1917" transform="translate(0)">
					<path id="Path_2769" class="st1" d="M19.5,10c0.7-0.8,0.7-2.1-0.2-2.8C19,6.9,18.5,6.7,18,6.7h-3.9c0.3-1.1,0.5-2.2,0.5-3.4
						V2.7C14.7,1.2,13.5,0,12,0h-0.7c-0.3,0-0.6,0.2-0.6,0.5L10.3,2C9.8,4,8.2,6.2,6.5,6.6c-0.3-0.8-1-1.3-1.9-1.3h-4
						C0.3,5.4,0,5.7,0,6v12c0,0.4,0.3,0.7,0.7,0.7h4c0.8,0,1.5-0.4,1.8-1.1l2.3,0.8c0.7,0.2,1.5,0.4,2.3,0.4h5.6c1.1,0,2-0.9,2-2
						c0-0.3,0-0.5-0.1-0.7c1.1-0.3,1.7-1.4,1.4-2.5c-0.1-0.3-0.2-0.6-0.4-0.8C20.2,11.9,20.2,10.8,19.5,10L19.5,10z M5.3,16.7
						c0,0.4-0.3,0.7-0.7,0.7H1.3V6.7h3.3C5,6.7,5.3,7,5.3,7.4V16.7z M16.7,10.7H18c0.4,0,0.7,0.3,0.6,0.7c0,0.3-0.3,0.6-0.6,0.6
						h-1.3c-0.4,0-0.7,0.3-0.6,0.7c0,0.3,0.3,0.6,0.6,0.6H18c0.4,0,0.7,0.3,0.7,0.6c0,0.4-0.3,0.7-0.6,0.7c0,0,0,0-0.1,0h-1.3
						c-0.4,0-0.7,0.3-0.6,0.7c0,0.3,0.3,0.6,0.6,0.6c0.4,0,0.7,0.3,0.7,0.6c0,0.4-0.3,0.7-0.6,0.7c0,0,0,0-0.1,0h-5.6
						c-0.6,0-1.3-0.1-1.9-0.3l-2.5-0.8V8c1.2-0.3,2.2-1,3-1.9c0.9-1.1,1.6-2.4,2-3.8l0.2-0.9H12c0.7,0,1.3,0.6,1.3,1.3v0.7
						c0,1.2-0.2,2.3-0.6,3.4h-1.4c-0.4,0-0.7,0.3-0.7,0.6c0,0.4,0.3,0.7,0.6,0.7c0,0,0,0,0.1,0H18c0.4,0,0.7,0.3,0.6,0.7
						c0,0.3-0.3,0.6-0.6,0.6h-1.3c-0.4,0-0.7,0.3-0.6,0.7C16,10.4,16.3,10.7,16.7,10.7L16.7,10.7z"/>
				</g>
			</g>
			<g id="Group_1920" transform="translate(2.667 18.756)">
				<g id="Group_1919" transform="translate(0)">
					<circle id="Ellipse_40" class="st2" cx="0.7" cy="0.7" r="0.7"/>
				</g>
			</g>
			<g id="Group_1922" transform="translate(12)">
				<g id="Group_1921">
					<path id="Path_2770" class="st2" d="M0.7,0C0.3,0,0,0.3,0,0.7V2c0,0.4,0.3,0.7,0.7,0.6C1,2.7,1.3,2.4,1.3,2V0.7
						C1.3,0.3,1,0,0.7,0z"/>
				</g>
			</g>
			<g id="Group_1924" transform="translate(7.757 1.802)">
				<g id="Group_1923" transform="translate(0)">
					<path id="Path_2771" class="st2" d="M2.1,1.1L1.1,0.2c-0.3-0.3-0.7-0.3-0.9,0s-0.3,0.7,0,0.9c0,0,0,0,0,0l0.9,0.9
						c0.3,0.3,0.7,0.2,0.9,0C2.3,1.8,2.3,1.4,2.1,1.1z"/>
				</g>
			</g>
			<g id="Group_1926" transform="translate(15.3 1.802)">
				<g id="Group_1925" transform="translate(0)">
					<path id="Path_2772" class="st2" d="M2.1,0.2c-0.3-0.3-0.7-0.3-0.9,0L0.2,1.1c-0.3,0.3-0.2,0.7,0,0.9c0.3,0.2,0.7,0.2,0.9,0
						l0.9-0.9C2.3,0.9,2.3,0.5,2.1,0.2z"/>
				</g>
			</g>
		</g>
	</g>
</g>
</svg>
