<?xml version="1.0" encoding="utf-8"?>
<!-- Generator: Adobe Illustrator 24.0.2, SVG Export Plug-In . SVG Version: 6.00 Build 0)  -->
<svg version="1.1" id="Layer_1" xmlns="http://www.w3.org/2000/svg" xmlns:xlink="http://www.w3.org/1999/xlink" x="0px" y="0px"
	 viewBox="0 0 24 24" style="enable-background:new 0 0 24 24;" xml:space="preserve">
<style type="text/css">
	.st0{clip-path:url(#SVGID_2_);}
	.st1{fill:#FEBF32;}
</style>
<g>
	<defs>
		<rect id="SVGID_1_" width="24" height="24"/>
	</defs>
	<clipPath id="SVGID_2_">
		<use xlink:href="#SVGID_1_"  style="overflow:visible;"/>
	</clipPath>
	<g id="Plumbing" class="st0">
		<g id="water-tap" transform="translate(1 1)">
			<path id="Path_2439" class="st1" d="M1.9,5.2H0.6C0.3,5.2,0,5.4,0,5.8c0,0,0,0,0,0v6.9c0,0.4,0.3,0.6,0.6,0.6c0,0,0,0,0,0h1.3
				c0.4,0,0.6-0.3,0.6-0.6c0,0,0,0,0,0V5.8C2.6,5.4,2.3,5.2,1.9,5.2C1.9,5.2,1.9,5.2,1.9,5.2z"/>
			<path id="Path_2440" class="st1" d="M16.2,6.9h-1.5C14.6,6,13.9,5.3,13,5.2V3.9H8.3v1.3C7.4,5.3,6.6,6,6.5,6.9H3.9v4.7h2.7
				c0.1,1,0.9,1.7,1.9,1.7h4.3c1,0,1.8-0.7,1.9-1.7h1.5c0.6,0,1.1,0.5,1.1,1.1v1.5c0,0.4,0.3,0.6,0.6,0.6c0,0,0,0,0,0h3.4
				c0.4,0,0.6-0.3,0.6-0.6c0,0,0,0,0,0v-1.5C22,9.5,19.4,6.9,16.2,6.9z"/>
			<path id="Path_2441" class="st1" d="M20.2,16.4c-0.2-0.3-0.6-0.3-0.9-0.1c0,0-0.1,0.1-0.1,0.1l-1.4,1.8c-0.8,1-0.6,2.5,0.5,3.3
				c1,0.8,2.5,0.6,3.3-0.5c0.6-0.8,0.6-2,0-2.8L20.2,16.4z"/>
			<path id="Path_2442" class="st1" d="M7,2.6h7.3c0.7,0,1.3-0.6,1.3-1.3S15,0,14.3,0H7C6.2,0,5.7,0.6,5.7,1.3S6.2,2.6,7,2.6z"/>
		</g>
	</g>
</g>
</svg>
