<svg xmlns="http://www.w3.org/2000/svg" xmlns:xlink="http://www.w3.org/1999/xlink" width="24" height="24" viewBox="0 0 24 24">
  <defs>
    <clipPath id="clip-Tiles">
      <rect width="24" height="24"/>
    </clipPath>
  </defs>
  <g id="Tiles" clip-path="url(#clip-Tiles)">
    <g id="tile_1_" data-name="tile (1)" transform="translate(1 1)">
      <path id="Path_2642" data-name="Path 2642" d="M91,301.835v5.12h5.12A5.811,5.811,0,0,0,91,301.835Z" transform="translate(-87.09 -288.866)"/>
      <path id="Path_2643" data-name="Path 2643" d="M21.355,0H.645A.644.644,0,0,0,0,.645V21.355A.644.644,0,0,0,.645,22H21.355A.644.644,0,0,0,22,21.355V.645A.644.644,0,0,0,21.355,0ZM2.621,3.266a.644.644,0,0,1,.645-.645H9.711a.644.644,0,0,1,.645.645,7.1,7.1,0,0,1-7.09,7.09.644.644,0,0,1-.645-.645Zm7.09,16.113H3.266a.644.644,0,0,1-.645-.645V12.289a.644.644,0,0,1,.645-.645,7.1,7.1,0,0,1,7.09,7.09A.644.644,0,0,1,9.711,19.379ZM11,14.735a.645.645,0,0,1-.552-.312,8.469,8.469,0,0,0-2.871-2.871.645.645,0,0,1,0-1.1,8.469,8.469,0,0,0,2.871-2.871.671.671,0,0,1,1.1,0,8.469,8.469,0,0,0,2.871,2.871.645.645,0,0,1,0,1.1,8.469,8.469,0,0,0-2.871,2.871.645.645,0,0,1-.552.312Zm8.379,4a.644.644,0,0,1-.645.645H12.289a.644.644,0,0,1-.645-.645,7.1,7.1,0,0,1,7.09-7.09.644.644,0,0,1,.645.645Zm0-9.023a.644.644,0,0,1-.645.645,7.1,7.1,0,0,1-7.09-7.09.644.644,0,0,1,.645-.645h6.445a.644.644,0,0,1,.645.645Z"/>
      <circle id="Ellipse_38" data-name="Ellipse 38" cx="1.94" cy="1.94" r="1.94" transform="translate(9.06 9.06)"/>
      <path id="Path_2644" data-name="Path 2644" d="M301.835,306.955h5.12v-5.12A5.811,5.811,0,0,0,301.835,306.955Z" transform="translate(-288.866 -288.866)"/>
      <path id="Path_2645" data-name="Path 2645" d="M306.955,96.12V91h-5.12A5.811,5.811,0,0,0,306.955,96.12Z" transform="translate(-288.866 -87.09)"/>
      <path id="Path_2646" data-name="Path 2646" d="M96.12,91H91v5.12A5.811,5.811,0,0,0,96.12,91Z" transform="translate(-87.09 -87.09)"/>
    </g>
  </g>
</svg>
