<?xml version="1.0" encoding="utf-8"?>
<!-- Generator: Adobe Illustrator 24.0.2, SVG Export Plug-In . SVG Version: 6.00 Build 0)  -->
<svg version="1.1" id="Layer_1" xmlns="http://www.w3.org/2000/svg" xmlns:xlink="http://www.w3.org/1999/xlink" x="0px" y="0px"
	 viewBox="0 0 24 24" style="enable-background:new 0 0 24 24;" xml:space="preserve">
<style type="text/css">
	.st0{clip-path:url(#SVGID_2_);}
	.st1{fill:#FEBF32;stroke:#8D0300;stroke-miterlimit:10;}
</style>
<g>
	<defs>
		<rect id="SVGID_1_" width="24" height="24"/>
	</defs>
	<clipPath id="SVGID_2_">
		<use xlink:href="#SVGID_1_"  style="overflow:visible;"/>
	</clipPath>
	<g id="support" class="st0">
		<g id="headphone" transform="translate(2.484 3.703)">
			<path id="Path_2790" class="st1" d="M3.8,14.3c0.3,1.5,1.5,2.6,3,2.6H7c0.3,0.7,1,1.2,1.7,1.3h2.4c0.9,0,1.8-0.6,2-1.6
				c0.2-1.1-0.7-2.1-1.8-2.1H8.8c-0.8,0-1.5,0.5-1.7,1.3H6.9c-0.9,0-1.6-0.6-1.8-1.4L3.8,14.3z M5,14.2C5,14.2,5,14.2,5,14.2
				c0.7-0.3,1.2-1,1.2-1.7V7.4c0-0.7-0.5-1.4-1.2-1.6c0,0,0,0,0-0.1c0.3-2.5,2.4-4.4,5-4.5c2.5,0.1,4.7,2,5,4.5c0,0,0,0,0,0.1
				c-0.7,0.3-1.2,0.9-1.2,1.6v5.1c0,1,0.8,1.8,1.8,1.8h0.1c0.8,0,1.5-0.5,1.7-1.3c1.5-0.2,2.7-1.5,2.6-3.1c0.1-1.5-1.1-2.9-2.6-3.1
				c0,0,0,0,0,0c-0.2-0.6-0.6-1-1.2-1.2c0,0,0,0,0,0c-0.3-3.2-3-5.6-6.2-5.7C6.8,0.1,4.2,2.5,3.8,5.7c0,0,0,0,0,0
				c-0.6,0.2-1,0.6-1.2,1.2c-0.1,0-0.1,0-0.2,0V3.1c0-0.3-0.3-0.6-0.6-0.6c-0.3,0-0.6,0.3-0.6,0.6v4.3c0,0,0,0,0,0C0.5,8,0,8.9,0,10
				c-0.1,1.5,1.1,2.9,2.6,3.1c0,0,0,0,0,0c0.2,0.6,0.6,1,1.2,1.2L5,14.2z M8.8,15.6h2.5c0.4,0,0.7,0.3,0.7,0.7
				c0,0.4-0.3,0.7-0.7,0.7c0,0,0,0,0,0H8.8c-0.4,0-0.7-0.3-0.7-0.7C8.1,15.9,8.4,15.6,8.8,15.6z M1.2,10c0-0.9,0.5-1.6,1.4-1.9v3.8
				C1.7,11.6,1.1,10.8,1.2,10z M5,12.5c0,0.3-0.3,0.6-0.6,0.6H4.3c-0.3,0-0.6-0.3-0.6-0.6V7.4c0-0.3,0.3-0.6,0.6-0.6h0.2
				C4.8,6.8,5,7.1,5,7.4L5,12.5z M15.3,13.1C15.1,13,15,12.8,15,12.5V7.4c0-0.3,0.3-0.6,0.6-0.6h0.2c0.3,0,0.6,0.3,0.6,0.6l0,5.2
				c0,0.3-0.3,0.6-0.6,0.6h-0.2C15.4,13.1,15.4,13.1,15.3,13.1L15.3,13.1z M17.5,11.8V8.1c1,0.3,1.6,1.5,1.3,2.5
				C18.5,11.2,18.1,11.7,17.5,11.8z"/>
		</g>
	</g>
</g>
</svg>
