<?xml version="1.0" standalone="no"?> <!DOCTYPE svg PUBLIC "-//W3C//DTD SVG 1.0//EN" "http://www.w3.org/TR/2001/REC-SVG-20010904/DTD/svg10.dtd" > <svg xmlns="http://www.w3.org/2000/svg" width="100%" height="100%">
<defs >
<font id="yakout-bold" horiz-adv-x="1093" ><font-face
    font-family="Yakout Linotype W20 Bold"
    units-per-em="2048"
    panose-1="2 11 8 0 4 0 0 2 0 4"
    ascent="1800"
    descent="-1000"
    alphabetic="0" />
<missing-glyph horiz-adv-x="1048" d="M1048 1470V0H0V1470H1048ZM946 102V1367H102V102H946ZM494 479Q494 587 481 626T392 733Q315 805 289 859T263 979Q263 1099 336 1173T518 1248Q629 1248 704 1181T794 967L692 951Q680 1054 634 1099T523 1145Q461 1145
415 1095T368 970Q368 931 386 898T470 800Q538 733 564 680T591 514L588 479H494ZM479 239V376H594V239H479Z" />
<glyph unicode=" " glyph-name="space" horiz-adv-x="410" />
<glyph unicode="!" glyph-name="exclam" horiz-adv-x="522" d="M226 307Q216 428 206 533T185 733T162 913T136 1083Q158 1093 186 1101T243 1114T302 1124T358 1131Q358 1059 355 962T345 756T328 533T302 311Q297 310 287 309T265 308T242 307Q232 307 226 307ZM135
111Q135 135 144 158T171 198T212 225T262 236Q289 236 311 227T351 202T377 162T387 111Q387 52 352 18T262 -16Q232 -16 209 -6T169 21T144 61T135 111Z" />
<glyph unicode="&quot;" glyph-name="quotedbl" horiz-adv-x="866" d="M199 932Q197 950 195 969T193 1008Q193 1047 211 1073T276 1100Q322 1100 340 1074T358 1008Q358 989 356 970T354 932L330 672Q326 606 276 606Q225 606 221 672L199 932ZM512 932Q510 950
509 969T508 1008Q508 1047 526 1073T590 1100Q635 1100 653 1074T672 1008Q672 989 671 970T668 932L645 672Q639 606 590 606Q541 606 535 672L512 932Z" />
<glyph unicode="#" glyph-name="numbersign" horiz-adv-x="866" d="M539 635H367L336 430H508L539 635ZM492 311H319L276 0H147L190 311H49V430H209L238 635H96V754H256L301 1073H428L383 754H555L600 1073H727L682 754H815V635H666L635 430H768V311H618L573 0H446L492
311Z" />
<glyph unicode="$" glyph-name="dollar" horiz-adv-x="866" d="M373 1018Q342 1018 312 1007T255 972T213 915T197 838Q197 788 217 756T266 704T324 674T373 659V1018ZM463 61Q492 61 523 71T581 103T626 163T645 258Q645 340 602 386T463 444V61ZM373 -18Q303
-18 224 8T74 72V281H172Q168 258 168 225Q168 176 189 145T240 95T306 69T373 61V457Q238 477 163 556T88 776Q88 870 119 931T194 1030T288 1082T373 1100V1208H463V1100Q487 1100 520 1095T588 1081T657 1058T723 1028V827H625Q629 852 629 883Q629 918 615
942T578 984T526 1009T463 1018V645Q522 637 580 620T685 567T761 478T791 342Q791 240 754 171T665 60T556 1T463 -18V-174H373V-18Z" />
<glyph unicode="%" glyph-name="percent" horiz-adv-x="1556" d="M1036 244Q1036 129 1063 83T1141 37Q1192 37 1218 83T1245 244Q1245 360 1219 405T1141 451Q1090 451 1063 406T1036 244ZM311 836Q311 721 338 675T416 629Q467 629 493 675T520 836Q520 950
494 996T416 1042Q365 1042 338 996T311 836ZM1012 1100H1096L528 -18H444L1012 1100ZM145 836Q145 905 169 954T230 1035T317 1083T416 1100Q465 1100 513 1084T600 1036T661 955T684 836Q684 768 662 718T600 636T513 589T416 573Q367 573 318 588T231 636T169
718T145 836ZM872 244Q872 313 895 362T956 444T1043 492T1141 508Q1190 508 1239 493T1326 445T1387 363T1411 244Q1411 176 1388 126T1326 44T1239 -3T1141 -18Q1092 -18 1044 -3T957 44T895 126T872 244Z" />
<glyph unicode="&amp;" glyph-name="ampersand" horiz-adv-x="1210" d="M696 891Q696 956 662 992T575 1028Q518 1028 485 988T451 895Q451 838 483 800T559 725Q590 743 615 760T659 796T687 837T696 891ZM262 399Q262 338 284 281T345 180T433 111T537 84Q588
84 618 98T666 125Q633 166 596 221T523 334T455 451T397 561Q371 551 347 539T303 508T273 464T262 399ZM1163 610V539Q1124 535 1098 521T1047 461Q1022 416 986 362T913 256L877 211Q905 166 944 130T1038 94Q1069 94 1106 111T1167 145V66Q1145 51 1120 36T1064
7T1002 -15T930 -25Q856 -25 806 2T715 68Q651 29 580 2T424 -25Q240 -25 145 60T49 293Q49 373 81 428T159 523T260 587T365 631Q340 657 318 687T279 747T251 812T240 885Q240 977 310 1038T535 1100Q662 1100 737 1045T813 885Q813 836 794 800T745 739T675
696T596 670Q655 573 711 470T838 274Q854 293 871 318T903 371T926 425T934 471Q934 539 831 539V610H1163Z" />
<glyph unicode="&apos;" glyph-name="quotesingle" horiz-adv-x="432" d="M139 932Q137 950 135 969T133 1008Q133 1047 152 1073T217 1100Q262 1100 280 1074T299 1008Q299 989 297 970T295 932L270 672Q266 606 217 606Q166 606 162 672L139 932Z" />
<glyph unicode="(" glyph-name="parenleft" horiz-adv-x="758" d="M379 430Q379 171 459 -84Q538 -337 662 -472Q680 -492 680 -504Q680 -523 659 -523Q608 -523 444 -329Q307 -167 234 28Q160 223 160 420Q160 612 227 798Q295 986 416 1139Q588 1355 644 1355Q661
1355 661 1338Q661 1326 637 1298Q520 1156 449 918Q379 684 379 430Z" />
<glyph unicode=")" glyph-name="parenright" horiz-adv-x="758" d="M379 430Q379 684 309 918Q238 1156 121 1298Q96 1326 96 1338Q96 1355 114 1355Q169 1355 342 1139Q463 986 531 798Q598 612 598 420Q598 223 524 28Q450 -167 314 -329Q150 -523 99 -523Q78
-523 78 -504Q78 -492 95 -472Q220 -338 299 -84Q379 171 379 430Z" />
<glyph unicode="*" glyph-name="asterisk" horiz-adv-x="1139" d="M486 218Q466 153 442 101T391 13T335 -42T276 -62Q246 -62 220 -36Q194 -10 194 20Q194 145 474 230L486 218ZM701 322Q850 404 949 404Q1069 404 1069 314Q1069 224 949 224Q853 224 701 306V322ZM658
412Q742 692 867 692Q897 692 923 666Q950 640 950 609Q950 551 874 494Q836 466 785 443T670 400L658 412ZM475 401Q410 420 359 443T270 495Q195 552 195 610Q195 640 221 666Q246 693 277 693Q337 693 392 617Q448 543 486 413L475 401ZM564 444Q483 594 483
692Q483 812 572 812Q662 812 662 692Q662 597 581 444H564ZM579 185Q661 34 661 -62Q661 -182 571 -182Q481 -182 481 -63Q481 36 563 185H579ZM669 229Q949 144 949 19Q949 -12 922 -37Q896 -63 866 -63Q742 -63 657 217L669 229ZM437 307Q285 226 190 226Q70
226 70 315Q70 405 189 405Q287 405 437 324V307ZM570 224Q552 224 536 231T507 250T488 279T481 313Q481 350 507 376T570 403Q589 403 605 396T634 377T654 348T661 313Q661 295 654 279T635 250T606 231T570 224Z" />
<glyph unicode="+" glyph-name="plus" horiz-adv-x="1024" d="M39 518H453V919H569V518H983V401H569V0H453V401H39V518Z" />
<glyph unicode="," glyph-name="comma" horiz-adv-x="522" d="M133 -251Q158 -234 185 -209T234 -154T272 -90T287 -25Q287 1 274 24Q260 10 242 4T205 -3Q163 -3 139 27T115 97Q115 126 126 153T156 200T202 233T260 245Q300 245 329 229T378 186T406 124T415
51Q415 8 404 -35T372 -117T322 -189T258 -247Q238 -252 209 -254T157 -256Q151 -256 147 -256Q142 -256 133 -255V-251Z" />
<glyph unicode="-" glyph-name="hyphen" horiz-adv-x="874" d="M80 233V447H794V233H80Z" />
<glyph unicode="." glyph-name="period" horiz-adv-x="522" d="M130 114Q130 141 140 165T168 207T210 235T261 245Q289 245 313 235T355 206T383 164T393 113Q393 87 383 64T354 23T312 -5T261 -16Q234 -16 210 -6T168 22T140 63T130 114Z" />
<glyph unicode="/" glyph-name="slash" horiz-adv-x="1024" d="M175 -505L703 1334H849L321 -505H175Z" />
<glyph unicode="0" glyph-name="zero" horiz-adv-x="984" d="M87 541Q87 656 112 758T187 936T314 1056T491 1100Q592 1100 667 1056T793 936T869 758T895 541Q895 425 870 323T795 145T668 26T491 -18Q391 -18 316 25T189 145T113 323T87 541ZM300 541Q300 407
313 313T351 158T411 71T491 43Q536 43 572 70T632 158T670 312T684 541Q684 673 671 767T633 921T572 1008T491 1036Q446 1036 411 1009T351 921T313 767T300 541Z" />
<glyph unicode="1" glyph-name="one" horiz-adv-x="984" d="M225 72Q286 74 324 77T385 90T417 119T427 172V801Q427 827 412 841T363 856Q342 856 318 853T269 843T223 830T182 817L162 907Q212 918 268 937T377 981T472 1036T534 1100H665Q659 1073 656 1034T653
958V172Q653 138 660 119T688 90T745 77T841 72V0H225V72Z" />
<glyph unicode="2" glyph-name="two" horiz-adv-x="984" d="M116 160Q162 190 215 236T322 335T424 446T511 566T571 683T594 788Q594 872 541 912T409 952Q363 952 327 941T261 914T206 876T157 834V971Q182 989 218 1010T300 1052T397 1086T509 1100Q587 1100
647 1079T747 1021T807 936T828 831Q828 782 816 741T784 668T740 610T689 561L424 346Q354 293 327 265T300 223Q300 203 331 203H709Q731 203 747 211T773 230T788 253T797 272H862L803 0H116V160Z" />
<glyph unicode="3" glyph-name="three" horiz-adv-x="984" d="M243 631Q267 629 289 628T333 627Q371 627 416 636T500 666T564 724T590 817Q590 861 575 895T532 952T466 987T379 999Q340 999 306 990T244 966T192 935T150 903V1030Q169 1038 199 1050T269 1073T355
1092T457 1100Q539 1100 606 1081T719 1027T791 946T817 846Q817 797 802 760T760 695T700 648T630 616T556 593T488 578V573Q548 567 612 549T730 497T818 411T852 283Q852 233 831 180T759 83T624 11T415 -18Q357 -18 303 -9T206 20T138 67T112 131Q112 173 135
192T190 211Q218 211 239 204T277 186T306 159T330 129Q341 114 352 99T375 73T403 54T438 47Q481 47 516 67T575 120T613 198T627 289Q627 355 602 401T535 478T441 521T332 535Q305 535 284 534T243 530V631Z" />
<glyph unicode="4" glyph-name="four" horiz-adv-x="984" d="M560 883H556L179 397H560V883ZM85 416L615 1100H771Q767 1067 765 1031T763 944V397H900V268H763V82Q763 55 766 32T773 -18H552Q556 8 558 31T560 82V268H85V416Z" />
<glyph unicode="5" glyph-name="five" horiz-adv-x="984" d="M258 1073H696Q729 1073 742 1083T759 1112H827L784 862H321L288 612Q311 618 354 622T438 627Q516 627 590 608T725 549T823 448T860 299Q860 238 835 181T758 79T631 9T452 -18Q383 -18 324 -4T222
32T155 84T129 141Q129 178 154 199T219 221Q272 221 299 194T346 133T388 74T452 47Q522 47 569 112T616 295Q616 332 605 375T564 456T480 519T340 545Q284 545 248 537T188 518L258 1073Z" />
<glyph unicode="6" glyph-name="six" horiz-adv-x="984" d="M322 401Q322 350 333 291T369 180T430 95T518 61Q566 61 597 82T646 137T672 216T679 307Q679 378 663 428T618 510T551 556T467 571Q322 571 322 401ZM829 891Q804 909 778 928T723 963T660 989T584
999Q545 999 514 987T456 955T409 907T372 847Q359 820 349 787T332 721T322 654T318 592Q331 600 352 612T401 635T467 654T550 662Q617 662 675 640T778 577T847 477T874 346Q874 258 845 191T768 77T655 6T519 -18Q422 -18 346 15T218 110T139 262T111 463Q111
515 117 571T136 682T168 790T215 889Q243 936 279 975T358 1041T452 1084T560 1100Q636 1100 702 1084T829 1028V891Z" />
<glyph unicode="7" glyph-name="seven" horiz-adv-x="984" d="M194 1073H911L682 541Q626 408 571 265T489 -18H231L745 872H280Q260 872 247 864T225 844T212 817T202 788H145L194 1073Z" />
<glyph unicode="8" glyph-name="eight" horiz-adv-x="984" d="M591 653Q608 662 624 678T654 716T675 764T683 823Q683 865 668 902T625 967T558 1011T473 1027Q438 1027 404 1018T343 992T300 950T283 890Q283 856 299 828T343 774T405 727T477 684L562 637L591
653ZM335 489Q322 479 310 462T287 421T270 369T263 307Q263 253 278 207T324 126T402 73T516 53Q557 53 591 66T649 103T687 156T701 219Q701 262 681 294T629 352T558 400T478 449L361 510L335 489ZM315 551Q268 585 233 615T175 676T140 744T128 827Q128 875
147 923T209 1011T324 1075T501 1100Q592 1100 658 1079T766 1024T829 947T849 860Q849 818 837 785T801 723T745 670T669 625L628 602Q672 579 717 551T800 485T861 396T885 279Q885 235 868 184T807 87T686 12T488 -18Q387 -18 314 5T193 67T122 159T99 268Q99
328 117 372T161 446T217 496T268 528L315 551Z" />
<glyph unicode="9" glyph-name="nine" horiz-adv-x="984" d="M303 774Q303 702 320 652T368 570T439 524T524 510Q671 510 671 678Q671 729 659 788T622 899T559 984T470 1018Q420 1018 388 998T337 943T311 865T303 774ZM156 190Q178 172 204 153T260 118T324
92T398 82Q435 82 467 93T526 125T573 172T609 232Q622 259 633 292T651 359T663 426T667 489Q652 480 631 468T582 445T517 426T435 418Q369 418 310 440T207 503T137 603T111 735Q111 820 139 888T216 1003T328 1075T463 1100Q561 1100 637 1066T766 970T846
818T874 618Q874 565 868 509T849 398T817 290T769 191Q712 95 626 39T423 -18Q346 -18 280 -4T156 53V190Z" />
<glyph unicode=":" glyph-name="colon" horiz-adv-x="522" d="M130 114Q130 141 140 165T168 207T210 235T261 245Q289 245 313 235T355 206T383 164T393 113Q393 87 383 64T354 23T312 -5T261 -16Q234 -16 210 -6T168 22T140 63T130 114ZM130 609Q130 636 140
660T168 702T210 730T261 740Q289 740 313 730T355 701T383 659T393 608Q393 582 383 559T354 518T312 490T261 479Q234 479 210 489T168 517T140 558T130 609Z" />
<glyph unicode=";" glyph-name="semicolon" horiz-adv-x="522" d="M130 609Q130 636 140 660T168 702T210 730T261 740Q289 740 313 730T355 701T383 659T393 608Q393 582 383 559T354 518T312 490T261 479Q234 479 210 489T168 517T140 558T130 609ZM133 -251Q158
-234 185 -209T234 -154T272 -90T287 -25Q287 1 274 24Q260 10 242 4T205 -3Q163 -3 139 27T115 97Q115 126 126 153T156 200T202 233T260 245Q300 245 329 229T378 186T406 124T415 51Q415 8 404 -35T372 -117T322 -189T258 -247Q238 -252 209 -254T157 -256Q151
-256 147 -256Q142 -256 133 -255V-251Z" />
<glyph unicode="&lt;" glyph-name="less" horiz-adv-x="1024" d="M962 132V4L61 401V523L962 916V790L201 462L962 132Z" />
<glyph unicode="=" glyph-name="equal" horiz-adv-x="1024" d="M983 258H39V374H983V258ZM983 543H39V660H983V543Z" />
<glyph unicode="&gt;" glyph-name="greater" horiz-adv-x="1024" d="M62 788V916L963 519V397L62 4V130L823 458L62 788Z" />
<glyph unicode="?" glyph-name="question" horiz-adv-x="778" d="M195 117Q195 170 231 207T322 244Q373 244 409 207T446 117Q446 63 410 27T322 -10Q268 -10 232 26T195 117ZM270 612H350Q393 612 433 622T502 653T549 706T567 784Q567 831 553 863T514 916T458
947T393 956Q344 956 313 938T256 900T209 861T156 842Q115 842 97 872T78 944Q78 1014 126 1043T283 1073Q393 1073 472 1039T600 948T671 817T694 668Q694 606 670 560T603 483T504 436T381 420H354V328H270V612Z" />
<glyph unicode="@" glyph-name="at" horiz-adv-x="1245" d="M522 453Q522 385 546 350T610 315Q643 315 675 345T732 422T773 527T788 641Q788 690 773 720T723 750Q696 750 662 728T596 666T544 573T522 453ZM866 438Q860 416 856 395T852 365Q852 326 868 311T907
295Q946 295 980 324T1038 399T1078 502T1094 618Q1094 694 1063 764T975 889T837 976T653 1008Q573 1008 495 978T355 885T255 724T217 496Q217 408 253 330T349 193T491 100T668 66Q774 66 847 86T989 143L1008 72Q930 33 846 4T653 -25Q510 -25 401 20T215 142T100
321T61 537Q61 655 104 757T224 936T407 1056T639 1100Q756 1100 856 1063T1028 963T1142 811T1184 618Q1184 557 1165 490T1106 365T1012 270T885 233Q823 233 787 267T737 348H735Q700 299 651 266T549 233Q526 233 498 240T444 269T402 331T385 434Q385 518
410 591T479 716T580 798T705 829Q795 829 825 750H827L840 807H958L866 438Z" />
<glyph unicode="A" glyph-name="A" horiz-adv-x="1210" d="M485 827L367 483Q360 467 357 455T354 436Q354 418 379 418H600Q612 418 624 423T637 444Q637 451 633 464T623 489L485 827ZM18 72Q49 74 71 79T113 98T151 142T188 223L510 1112H657L1040 184Q1055
152 1072 131T1110 97T1152 79T1192 72V0H606V72H618Q655 72 680 78T719 94T738 117T743 143Q743 154 739 176T725 225L696 305Q688 330 675 338T637 346H360Q338 346 326 337T305 307L268 195Q260 172 258 156T256 129Q256 102 279 87T360 72H381V0H18V72Z" />
<glyph unicode="B" glyph-name="B" horiz-adv-x="1124" d="M461 659Q461 629 502 629Q563 629 607 644T680 686T722 747T735 823Q735 881 719 916T673 972T602 1000T512 1008Q487 1008 474 1002T461 969V659ZM461 111Q461 84 476 75T516 66Q653 66 717 128T782
305Q782 387 757 438T691 517T601 554T502 563Q479 563 470 556T461 535V111ZM43 72Q70 72 95 73T140 79T172 95T184 127V948Q184 969 172 979T141 994T96 1000T43 1001V1073H580Q657 1073 735 1067T875 1039T975 971T1012 850Q1012 776 974 730T883 659T773 623T682
606Q666 604 656 603T645 596Q645 590 658 588T705 580Q737 575 798 563T920 522T1025 439T1069 301Q1069 225 1039 174T961 89T855 38T741 12T636 2T561 0H43V72Z" />
<glyph unicode="C" glyph-name="C" horiz-adv-x="1124" d="M1049 152Q1022 127 972 97T860 38T726 -7T586 -25Q446 -25 346 21T182 144T86 317T55 514Q55 651 98 758T219 942T405 1059T645 1100Q756 1100 852 1086T1022 1055Q1016 977 1017 899T1028 745Q1008
750 980 747T932 737Q928 764 913 813T864 909T778 992T645 1028Q573 1028 515 991T417 891T356 738T334 547Q334 459 350 380T405 239T506 139T659 102Q717 102 769 116T865 150T945 190T1001 223L1049 152Z" />
<glyph unicode="D" glyph-name="D" horiz-adv-x="1210" d="M461 127Q461 106 470 95T494 79T529 73T567 72Q610 72 659 83T750 141T818 285T846 555Q846 772 785 886T584 1001Q532 1001 497 995T461 948V127ZM43 72Q70 72 95 73T140 79T172 95T184 127V948Q184
969 172 979T141 994T96 1000T43 1001V1073H627Q758 1073 856 1034T1019 923T1118 751T1151 532Q1151 274 1012 137T586 0H43V72Z" />
<glyph unicode="E" glyph-name="E" horiz-adv-x="1124" d="M43 72Q70 72 95 73T140 79T172 95T184 127V948Q184 969 172 979T141 994T96 1000T43 1001V1073H995Q995 1047 995 1009T996 931T1000 852T1008 782H928Q905 846 882 889T828 957T754 992T649 1001H524Q485
1001 473 992T461 956V639Q461 621 475 613T524 604H571Q625 604 655 616T702 649T724 696T735 756H811Q807 727 805 675T803 563Q803 506 805 451T811 360H731Q727 401 722 433T701 487T655 521T571 532H524Q489 532 475 524T461 498V117Q461 86 486 79T555 72H651Q723
72 775 100T864 171T925 261T969 350L1055 340Q1047 307 1039 264T1024 176T1013 86T1008 0H43V72Z" />
<glyph unicode="F" glyph-name="F" horiz-adv-x="1038" d="M43 72Q70 72 95 73T140 79T172 95T184 127V948Q184 969 172 979T141 994T96 1000T43 1001V1073H981Q979 1047 980 1009T982 931T986 852T991 782H911Q889 846 866 889T812 957T739 992T633 1001H524Q485
1001 473 992T461 961V639Q461 604 500 604H549Q602 604 634 616T681 649T702 696T713 756H788Q784 727 783 675T782 563Q782 506 783 451T788 360H711Q705 401 700 433T679 487T633 521T549 532H500Q461 532 461 498V125Q461 106 469 95T496 79T548 73T629 72V0H43V72Z"
/>
<glyph unicode="G" glyph-name="G" horiz-adv-x="1210" d="M627 485H1145V414Q1092 412 1066 405T1040 360V133Q1040 117 1043 104T1051 82Q956 41 837 8T594 -25Q457 -25 356 19T188 138T88 312T55 522Q55 643 91 747T203 930T394 1054T672 1100Q768 1100 860
1086T1014 1059Q1008 987 1010 905T1020 750L936 737Q926 778 909 828T859 923T778 997T653 1028Q559 1028 499 979T404 855T356 688T342 510Q342 420 357 336T404 189T486 86T610 47Q694 47 736 70T778 152V354Q778 373 770 384T746 400T700 409T627 414V485Z"
/>
<glyph unicode="H" glyph-name="H" horiz-adv-x="1296" d="M713 72Q737 72 759 73T799 79T826 95T836 127V510Q836 532 813 532H483Q461 532 461 510V127Q461 106 470 95T496 79T535 73T584 72V0H43V72Q70 72 95 73T140 79T172 95T184 127V948Q184 969 172 979T141
994T96 1000T43 1001V1073H584V1001Q557 1001 536 1000T497 994T470 979T461 948V627Q461 618 467 611T483 604H813Q823 604 829 611T836 627V948Q836 969 827 979T800 994T760 1000T713 1001V1073H1253V1001Q1227 1001 1203 1000T1158 994T1125 979T1112 948V127Q1112
106 1124 95T1157 79T1202 73T1253 72V0H713V72Z" />
<glyph unicode="I" glyph-name="I" horiz-adv-x="690" d="M59 72Q100 72 128 73T173 79T198 95T207 127V948Q207 969 199 979T173 994T128 1000T59 1001V1073H633V1001Q592 1001 564 1000T518 994T492 979T483 948V127Q483 106 491 95T517 79T563 73T633 72V0H59V72Z" />
<glyph unicode="J" glyph-name="J" horiz-adv-x="750" d="M690 1073V1001Q662 1001 638 1000T597 994T571 979T561 948V381Q561 322 566 261T571 123Q571 49 556 -21T499 -146T384 -234T199 -268Q152 -268 104 -257T16 -226T-48 -174T-74 -102Q-74 -66 -62 -40T-31
2T8 25T43 33Q74 33 93 22T126 -6T145 -42T152 -76Q152 -94 153 -116T161 -158T182 -190T221 -203Q262 -203 280 -171T299 -82Q299 6 292 92T285 268V948Q285 969 277 979T248 994T194 1000T106 1001V1073H690Z" />
<glyph unicode="K" glyph-name="K" horiz-adv-x="1210" d="M43 72Q70 72 95 73T140 79T172 95T184 127V948Q184 969 172 979T141 994T96 1000T43 1001V1073H588V1001Q551 1001 527 1000T488 994T467 979T461 948V561Q461 555 483 555Q502 555 532 580L879 905Q895
924 902 936T909 961Q909 991 878 996T791 1001V1073H1169V1001Q1126 1001 1091 982T1024 932L713 645L1098 147Q1118 123 1133 109T1162 85T1189 74T1217 72V0H862Q850 29 825 71T766 158L522 492Q502 516 481 516Q461 516 461 506V127Q461 106 470 95T496 79T538
73T594 72V0H43V72Z" />
<glyph unicode="L" glyph-name="L" horiz-adv-x="1038" d="M43 72Q70 72 95 73T140 79T172 95T184 127V948Q184 969 172 979T141 994T96 1000T43 1001V1073H653V1001Q596 1001 559 999T500 993T469 978T461 948V127Q461 100 479 86T567 72H618Q684 72 732 86T815
137T874 234T924 385L1001 373Q977 279 965 184T952 0H43V72Z" />
<glyph unicode="M" glyph-name="M" horiz-adv-x="1556" d="M950 72Q1040 74 1076 82T1112 127V1001H1108L733 0H633L268 1001H266V201Q266 156 273 130T298 92T343 76T414 72V0H43V72Q84 72 110 76T153 92T176 130T182 201V948Q182 969 172 979T145 994T102 1000T47
1001V1073H526L782 375L1044 1073H1524V1001Q1497 1001 1473 1000T1428 994T1396 979T1384 948V127Q1384 106 1395 95T1427 79T1472 73T1524 72V0H950V72Z" />
<glyph unicode="N" glyph-name="N" horiz-adv-x="1210" d="M43 72Q82 72 108 75T151 90T174 127T180 193V928Q180 954 170 969T143 992T100 1000T45 1001V1073H440L954 352H956V879Q956 924 950 949T928 986T883 999T811 1001V1073H1169V1001Q1141 1001 1118 1001T1078
995T1051 976T1040 938V-18H897L268 858H264V201Q264 152 271 126T297 88T347 74T426 72V0H43V72Z" />
<glyph unicode="O" glyph-name="O" horiz-adv-x="1124" d="M352 541Q352 424 359 332T389 177T454 80T561 47Q629 47 670 80T733 176T764 332T772 541Q772 657 764 748T734 903T670 1000T561 1034Q496 1034 454 1001T390 904T360 749T352 541ZM55 549Q55 664 92
764T195 939T355 1057T561 1100Q676 1100 769 1057T928 939T1031 764T1067 549Q1067 420 1029 316T924 134T764 16T561 -25Q453 -25 361 16T201 134T94 315T55 549Z" />
<glyph unicode="P" glyph-name="P" horiz-adv-x="1038" d="M461 543Q489 535 520 535Q604 535 655 594T707 768Q707 815 698 859T667 934T612 983T526 1001H512Q487 1001 474 995T461 963V543ZM43 72Q70 72 95 73T140 79T172 95T184 127V948Q184 969 172 979T141
994T96 1000T43 1001V1073H580Q662 1073 735 1059T866 1010T958 916T993 768Q993 702 966 646T886 550T761 487T600 463Q559 463 526 465T461 471V127Q461 106 469 95T495 79T544 73T621 72V0H43V72Z" />
<glyph unicode="Q" glyph-name="Q" horiz-adv-x="1124" d="M352 541Q352 424 359 332T389 177T454 80T561 47Q629 47 670 80T733 176T764 332T772 541Q772 657 764 748T734 903T670 1000T561 1034Q496 1034 454 1001T390 904T360 749T352 541ZM55 549Q55 664 92
764T195 939T355 1057T561 1100Q676 1100 769 1057T928 939T1031 764T1067 549Q1067 440 1041 348T964 184T844 62T690 -10Q705 -94 752 -143T895 -193Q918 -193 943 -189T994 -178T1043 -164T1085 -145V-244Q1008 -279 938 -292T797 -305Q709 -305 642 -281T530
-214T459 -117T420 -4Q340 18 273 68T157 190T82 353T55 549Z" />
<glyph unicode="R" glyph-name="R" horiz-adv-x="1210" d="M461 600Q461 588 474 584T516 580Q627 580 685 635T743 799Q743 860 726 899T678 961T607 993T522 1001Q492 1001 476 993T461 963V600ZM43 72Q70 72 95 73T140 79T172 95T184 127V948Q184 969 172 979T141
994T96 1000T43 1001V1073H602Q686 1073 764 1062T901 1023T995 949T1030 834Q1030 739 979 685T825 590Q801 580 780 574T758 561Q758 553 765 551T788 541Q801 537 814 530T844 508T880 469T922 406L1055 166Q1077 125 1097 99T1149 72H1167V0H829L584 477Q573
500 559 508T510 516Q477 516 469 507T461 485V127Q461 106 470 95T497 79T539 73T594 72V0H43V72Z" />
<glyph unicode="S" glyph-name="S" horiz-adv-x="950" d="M166 332Q223 184 302 116T483 47Q522 47 561 56T629 88T677 146T696 236Q696 301 657 337T528 395L340 449Q303 457 259 477T175 532T109 619T82 748Q82 811 102 874T172 987T301 1068T500 1100Q547 1100
587 1097T664 1090Q698 1085 727 1082T776 1079H817Q817 999 823 923T840 768L750 760Q737 811 714 858T654 941T571 997T463 1018Q424 1018 385 1010T316 981T266 930T246 852Q246 788 287 753T397 698L604 643Q674 625 725 597T811 532T863 443T881 322Q881 227
847 162T757 55T624 -5T459 -25Q424 -25 378 -21T268 -4Q223 4 179 10T102 16Q102 49 100 88T93 169T82 250T70 322L166 332Z" />
<glyph unicode="T" glyph-name="T" horiz-adv-x="1036" d="M211 72H262Q334 72 356 85T379 133V1001Q317 1001 274 979T203 919T157 832T125 729L33 754Q39 778 46 817T58 900T65 989T66 1073H971Q969 1034 971 989T978 900T990 817T1004 754L911 729Q899 782
881 831T834 918T762 978T657 1001V133Q657 115 661 104T678 85T713 75T774 72H825V0H211V72Z" />
<glyph unicode="U" glyph-name="U" horiz-adv-x="1296" d="M49 1073H588V1001H551Q494 1001 479 989T463 942V330Q463 260 487 213T550 138T636 97T733 84Q829 84 889 111T984 189T1030 310T1042 471V924Q1042 950 1029 966T996 990T949 999T897 1001V1073H1262V1001Q1239
1001 1215 999T1171 990T1139 967T1126 922V424Q1126 297 1092 212T994 75T844 -1T653 -25Q555 -25 470 2T322 78T222 200T186 367V948Q186 979 170 990T98 1001H49V1073Z" />
<glyph unicode="V" glyph-name="V" horiz-adv-x="1210" d="M186 879Q172 920 156 944T123 982T87 998T47 1001V1073H616V1001Q557 1001 518 992T479 950Q479 924 489 890T512 821L711 252H713L920 823Q930 852 940 882T950 946Q950 983 916 992T813 1001V1073H1163V1001Q1124
1001 1091 978T1032 889L682 -25H532L186 879Z" />
<glyph unicode="W" glyph-name="W" horiz-adv-x="1556" d="M551 1073V1001Q504 1001 474 995T427 979T403 956T395 926Q395 903 401 879T416 827L553 315H555L799 1073H965L1190 301H1192L1331 840Q1339 866 1343 889T1348 940Q1348 950 1344 961T1326 982T1288
996T1223 1001V1073H1536V1001Q1501 1001 1476 982T1436 907L1182 -25H1008L784 788H782L520 -25H377L135 899Q127 936 115 956T88 987T57 999T20 1001V1073H551Z" />
<glyph unicode="X" glyph-name="X" horiz-adv-x="1210" d="M37 72Q78 72 108 93T182 160L485 481L190 897Q145 956 114 977T51 1001V1073H639V1001Q614 999 591 997T548 989T516 973T504 944Q504 928 517 907T553 852L674 684L840 864Q872 899 885 918T899 950Q899
965 887 974T856 989T815 998T768 1001V1073H1147V1001Q1100 999 1059 967T983 897L723 621L1028 176Q1067 117 1105 95T1174 72V0H594V72Q670 76 702 84T735 121Q735 139 723 158T688 209L537 424L319 184Q301 168 289 151T276 113Q276 94 309 83T418 72V0H37V72Z"
/>
<glyph unicode="Y" glyph-name="Y" horiz-adv-x="1210" d="M307 72Q406 74 441 82T477 127V393L172 891Q160 911 147 930T118 966T85 992T47 1001V1073H633V1001H612Q567 1001 532 986T496 936Q496 918 507 895T528 854L725 494L911 866Q920 883 926 900T932 938Q932
973 894 987T801 1001V1073H1163V1001Q1081 1001 1018 887L754 393V127Q754 90 789 82T922 72V0H307V72Z" />
<glyph unicode="Z" glyph-name="Z" horiz-adv-x="1038" d="M641 1001H469Q428 1001 399 997T344 984T297 959T250 918Q223 893 201 847T162 739L80 760Q96 834 105 920T119 1083Q127 1079 136 1078T158 1075Q166 1073 178 1073Q188 1073 203 1073H930L956 1004L367
72H553Q639 72 694 92T788 150T852 238T899 346L983 334Q967 250 959 167T946 0H88L55 68L641 1001Z" />
<glyph unicode="[" glyph-name="bracketleft" horiz-adv-x="740" d="M598 1174H466Q392 1174 366 1148T340 1051V-230Q340 -301 366 -327T466 -353H598V-497H140V1318H598V1174Z" />
<glyph unicode="\" glyph-name="backslash" horiz-adv-x="1024" d="M703 -505L175 1334H321L849 -505H703Z" />
<glyph unicode="]" glyph-name="bracketright" horiz-adv-x="740" d="M142 -353H274Q348 -353 374 -327T400 -230V1051Q400 1122 374 1148T274 1174H142V1318H600V-497H142V-353Z" />
<glyph unicode="^" glyph-name="asciicircum" horiz-adv-x="934" d="M467 928L264 516H127L406 1073H528L807 516H670L467 928Z" />
<glyph unicode="_" glyph-name="underscore" horiz-adv-x="778" d="M0 -195V-117H778V-195H0Z" />
<glyph unicode="`" glyph-name="grave" horiz-adv-x="432" d="M12 1022Q-12 1038 -20 1054T-29 1094Q-29 1124 -7 1140T39 1157Q66 1157 86 1148T127 1116L340 872H254L12 1022Z" />
<glyph unicode="a" glyph-name="a" horiz-adv-x="866" d="M535 385Q485 385 434 378T341 352T273 297T246 211Q246 160 278 125T373 90Q430 90 466 106T535 137V385ZM535 559Q535 600 525 626T496 668T453 689T399 694Q344 694 300 682T225 649Q238 635 244 621T250
580Q250 547 225 521T152 494Q115 494 86 517T57 586Q57 627 85 659T162 713T278 747T424 760Q483 760 539 751T640 718T709 656T735 563V139Q735 72 786 72Q813 72 834 84V4Q817 -2 787 -6T717 -10Q645 -10 607 12T549 66Q502 35 425 9T260 -18Q217 -18 178 -10T110
19T62 75T43 160Q43 217 69 269T155 361T307 426T535 451V559Z" />
<glyph unicode="b" glyph-name="b" horiz-adv-x="950" d="M354 195Q354 154 368 126T403 81T447 55T487 47Q535 47 567 75T620 151T651 261T662 389Q662 444 653 495T624 585T576 646T508 670Q475 670 448 653T400 614T367 571T354 543V195ZM143 971Q143 1001
102 1001Q82 1001 66 998T35 993V1073H53Q166 1075 240 1094Q262 1098 280 1103T307 1112H362Q360 1096 357 1069T354 1016V696Q354 684 355 678T365 672Q371 672 376 677T387 688Q424 721 471 740T575 760Q653 760 713 729T814 646T874 526T895 379Q895 319 878
249T815 119T696 21T510 -18Q453 -18 404 -7T308 17T219 42T133 53Q141 74 142 106T143 176V971Z" />
<glyph unicode="c" glyph-name="c" horiz-adv-x="778" d="M725 121Q672 63 587 23T387 -18Q328 -18 269 1T162 63T85 178T55 356Q55 467 90 544T180 669T304 738T444 760Q477 760 524 755T613 737T684 701T713 643Q713 627 706 606T685 564T650 530T596 516Q549
516 530 543T499 605T472 666T418 694Q397 694 373 682T328 635T295 537T283 373Q283 233 325 158T469 82Q500 82 530 91T588 113T640 143T680 172L725 121Z" />
<glyph unicode="d" glyph-name="d" horiz-adv-x="950" d="M600 514Q600 522 591 545T566 595T523 640T459 659Q424 659 393 639T339 581T302 489T289 367Q289 301 302 249T336 159T386 102T446 82Q477 82 502 97T547 134T580 180T600 221V514ZM471 1073H506Q621
1075 696 1094Q717 1098 736 1103T764 1112H819Q815 1096 813 1069T811 1016V129Q811 106 819 98T848 90Q868 90 887 93T920 100V18Q907 18 874 17T803 13T732 4T684 -10H633Q631 16 628 35T618 72Q612 88 606 88Q600 88 596 84T586 74L567 55Q535 23 485 3T375
-18Q295 -18 236 16T136 106T76 230T55 365Q55 457 86 530T165 654T273 732T393 760Q461 760 501 740T559 702Q571 690 577 682T592 674Q598 674 599 680T600 694V971Q600 1001 559 1001Q539 1001 519 998T471 993V1073Z" />
<glyph unicode="e" glyph-name="e" horiz-adv-x="866" d="M569 449Q569 553 536 620T426 688Q360 688 322 622T283 449H569ZM809 123Q750 66 656 24T432 -18Q344 -18 275 8T156 84T81 201T55 352Q55 467 93 545T187 671T308 739T430 760Q510 760 577 738T693 667T768
547T795 377H283Q283 328 291 276T323 179T393 109T510 82Q594 82 660 112T766 178L809 123Z" />
<glyph unicode="f" glyph-name="f" horiz-adv-x="606" d="M45 66Q86 68 112 74T139 111V649H45V721H139V821Q139 887 162 941T227 1033T324 1091T444 1112Q475 1112 501 1106T548 1087T581 1051T594 993Q594 975 587 957T569 924T543 900T510 891Q477 891 459
910T426 955T396 1001T352 1022Q330 1022 316 1004T301 954Q301 938 309 917T325 868T342 804T350 721H571V649H350V111Q350 100 354 92T374 79T421 70T506 66H518V0H45V66Z" />
<glyph unicode="g" glyph-name="g" horiz-adv-x="866" d="M309 528Q309 492 315 460T336 404T374 365T436 350Q496 350 525 401T555 524Q555 612 520 653T432 694Q377 694 343 647T309 528ZM276 14Q272 12 259 4T232 -19T207 -58T197 -115Q197 -180 256 -210T422
-240Q467 -240 508 -232T580 -208T631 -168T651 -109Q651 -82 633 -61T586 -25T520 -3T446 6L276 14ZM815 725Q815 707 795 707Q776 707 756 715T711 723Q668 723 641 702Q662 696 683 680T720 640T745 586T756 522Q756 463 727 419T652 345T548 300T432 285Q397
285 368 287T319 295Q299 285 277 272T254 233Q254 211 286 201T403 178L553 156Q686 137 755 93T825 -43Q825 -94 801 -142T724 -226T591 -283T393 -305Q332 -305 271 -296T160 -266T80 -210T49 -127Q49 -96 64 -70T99 -23T139 12T170 33Q182 41 190 45T199 55Q199
63 189 65T166 74Q129 84 105 103T80 158Q80 190 112 220T186 276Q213 291 230 300T248 315Q248 324 235 331T193 356Q154 385 130 422T106 524Q106 582 134 626T206 699T308 744T426 760Q473 760 512 752T582 731Q606 774 650 793T782 813Q815 813 815 795V725Z"
/>
<glyph unicode="h" glyph-name="h" horiz-adv-x="950" d="M31 66Q82 68 110 73T139 100V971Q139 1001 98 1001Q82 1001 66 998T31 993V1073H55Q102 1073 155 1079T251 1097T301 1112H358Q354 1096 352 1069T350 1016V649Q350 633 354 633Q360 633 380 652T447
700T532 744T618 760Q724 760 775 706T827 553V100Q827 89 834 83T855 74T886 69T926 66V0H535V66Q571 68 593 73T616 100V522Q616 587 584 610Q552 633 512 633Q485 633 457 620T405 584T366 530T350 465V100Q350 78 376 73T444 66V0H31V66Z" />
<glyph unicode="i" glyph-name="i" horiz-adv-x="518" d="M264 885Q207 885 173 917T139 999Q139 1049 173 1080T264 1112Q322 1112 356 1081T391 999Q391 950 357 918T264 885ZM47 66Q102 68 132 73T162 100V618Q162 651 121 651Q100 651 82 648T47 639V721H68Q186
725 258 741Q281 745 299 750T328 760H381Q379 743 376 717T373 664V100Q373 78 401 73T477 66V0H47V66Z" />
<glyph unicode="j" glyph-name="j" horiz-adv-x="518" d="M170 999Q170 1049 204 1080T295 1112Q354 1112 388 1081T422 999Q422 950 388 918T295 885Q238 885 204 917T170 999ZM53 721H100Q217 725 289 741Q311 745 329 750T358 760H412Q410 743 408 717T406
664V184Q406 133 412 81T418 -23Q418 -92 396 -145T333 -233T240 -286T127 -305Q43 -305 -3 -264T-49 -164Q-49 -121 -27 -91T33 -61Q70 -61 85 -87T112 -142T140 -197T190 -223Q238 -223 254 -201T270 -145Q270 -117 258 -93T232 -34T205 48T193 172V618Q193 649
152 649Q109 649 53 639V721Z" />
<glyph unicode="k" glyph-name="k" horiz-adv-x="950" d="M18 66Q78 68 108 73T139 100V971Q139 1001 98 1001Q78 1001 59 998T18 993V1073H45Q160 1075 236 1094Q256 1098 275 1103T303 1112H358Q354 1096 352 1069T350 1016V414Q350 391 369 391Q385 391 403
412L565 573Q578 586 587 596T596 618Q596 633 588 639T568 649T543 654T522 655V721H866V655Q825 655 780 647T698 602L565 471Q561 465 556 461T551 451Q551 444 556 441T563 432L836 100Q858 74 876 70T918 66V0H649L397 334Q391 340 384 347T367 354Q350 354
350 336V100Q350 78 379 73T463 66V0H18V66Z" />
<glyph unicode="l" glyph-name="l" horiz-adv-x="518" d="M373 100Q373 78 401 73T477 66V0H47V66Q102 68 132 73T162 100V971Q162 1001 121 1001Q104 1001 86 998T47 993V1073H74Q184 1075 258 1094Q281 1098 299 1103T328 1112H381Q379 1096 376 1069T373 1016V100Z" />
<glyph unicode="m" glyph-name="m" horiz-adv-x="1384" d="M31 66Q82 68 110 73T139 100V618Q139 649 98 649Q78 649 61 646T31 639V721H57Q106 723 152 728T236 741Q256 745 275 750T303 760H344V647Q344 633 354 633Q360 633 368 641T406 672Q449 705 499 732T629
760Q662 760 690 748T740 716T777 672T801 618Q854 680 925 720T1073 760Q1174 760 1221 695T1268 522V100Q1268 78 1294 73T1358 66V0H975V66Q1006 68 1031 73T1057 100V504Q1057 573 1029 603T956 633Q926 633 899 618T853 583T822 545T809 518V100Q809 78 834
73T889 66V0H518V66Q549 68 573 73T598 100V508Q598 633 502 633Q463 633 435 618T387 584T359 548T350 526V100Q350 78 375 73T432 66V0H31V66Z" />
<glyph unicode="n" glyph-name="n" horiz-adv-x="950" d="M31 66Q82 68 110 73T139 100V618Q139 649 98 649Q78 649 61 646T31 639V721H57Q106 723 152 728T236 741Q256 745 275 750T303 760H344V647Q344 633 354 633Q360 633 380 652T447 700T532 744T618 760Q723
760 775 706T827 553V100Q827 78 855 73T926 66V0H535V66Q571 68 593 73T616 100V522Q616 588 585 610T512 633Q485 633 457 620T405 584T366 531T350 465V100Q350 78 376 73T444 66V0H31V66Z" />
<glyph unicode="o" glyph-name="o" horiz-adv-x="866" d="M289 371Q289 309 297 253T321 152T365 80T432 53Q471 53 499 79T544 151T568 253T575 371Q575 432 568 488T545 589T500 660T432 688Q393 688 366 661T322 589T297 489T289 371ZM55 371Q55 451 80 520T155
643T274 728T432 760Q522 760 592 728T710 643T783 521T809 371Q809 291 784 222T710 98T592 13T432 -18Q344 -18 275 12T156 97T81 221T55 371Z" />
<glyph unicode="p" glyph-name="p" horiz-adv-x="950" d="M365 188Q365 182 377 166T409 132T455 101T508 88Q549 88 577 112T622 177T645 270T651 379Q651 432 645 482T624 569T582 628T516 651Q485 651 459 634T411 595T377 554T365 530V188ZM37 -229Q102 -229
127 -223T152 -190V618Q152 649 113 649Q92 649 74 646T37 639V721H59Q178 725 250 741Q270 745 288 750T317 760H354V674Q354 668 355 662T365 655Q375 655 397 676Q432 707 481 733T600 760Q672 760 726 729T817 647T874 529T895 385Q895 307 873 237T808 113T704
28T561 -4Q498 -4 461 17T401 53Q389 61 383 66T373 72Q365 72 365 55V-190Q365 -217 391 -223T498 -229V-295H37V-229Z" />
<glyph unicode="q" glyph-name="q" horiz-adv-x="950" d="M600 555Q600 561 591 579T566 618T523 654T463 670Q418 670 385 644T329 577T294 480T283 367Q283 295 298 242T339 155T398 105T465 88Q496 88 521 100T563 129T590 160T600 180V555ZM459 -229Q526 -229
563 -223T600 -197V61Q555 29 502 13T393 -4Q330 -4 271 17T162 83T84 195T55 360Q55 465 91 541T180 666T296 737T418 760Q494 760 550 728T645 657L768 756H821Q819 735 815 704T811 629V-197Q811 -217 838 -223T905 -229V-295H459V-229Z" />
<glyph unicode="r" glyph-name="r" horiz-adv-x="690" d="M43 66Q84 68 111 74T139 109V618Q139 649 106 649Q92 649 74 646T43 639V721Q70 721 107 724T181 732T246 744T287 760H330V598Q330 586 338 586Q342 586 348 594T367 623Q379 643 401 666T452 710T511
745T569 760Q594 760 614 748T648 716T669 671T676 618Q676 569 655 534T582 498Q553 498 539 516T514 556T494 595T459 612Q444 612 426 601T391 565T362 500T350 406V121Q350 106 357 96T383 79T434 69T518 66H530V0H43V66Z" />
<glyph unicode="s" glyph-name="s" horiz-adv-x="690" d="M113 240Q121 209 140 174T188 112T255 66T338 47Q403 47 440 72T477 143Q477 172 456 194T385 240L227 301Q197 315 166 334T112 383T74 448T59 535Q59 575 75 616T129 689T226 740T375 760Q459 760 514
751T606 735Q600 690 603 636T612 539L541 530Q532 596 480 645T332 694Q276 694 237 672T197 602Q197 565 225 544T317 496L451 440Q489 424 524 405T584 360T625 298T641 211Q641 172 626 130T576 56T484 3T342 -18Q260 -18 189 -4T72 23Q72 43 70 71T65 129T58
184T49 229L113 240Z" />
<glyph unicode="t" glyph-name="t" horiz-adv-x="606" d="M37 702Q76 719 113 746T180 807T235 876T276 948H360Q360 936 359 915T358 874V721H575V649H358V182Q358 119 391 96T465 72Q502 72 532 81T580 98V27Q561 16 536 8T481 -5T420 -14T360 -18Q303 -18 263
-1T198 48T159 120T145 205V649H37V702Z" />
<glyph unicode="u" glyph-name="u" horiz-adv-x="950" d="M139 614Q139 649 113 649Q100 649 81 644T45 631V721Q70 721 106 722T179 726T245 737T289 760H358Q350 729 350 678V215Q350 158 371 124T446 90Q481 90 512 110T566 157T603 206T616 238V614Q616 649
592 649Q578 649 560 644T522 631V721Q549 721 585 722T656 726T723 737T766 760H836Q827 729 827 678V133Q827 115 834 109T858 102Q874 102 896 106T934 113V37Q907 37 874 33T807 23T744 7T690 -10H639L631 68Q627 88 625 95T614 102Q608 102 603 98T592 88Q575
72 552 54T498 20T431 -7T358 -18Q246 -18 193 47T139 225V614Z" />
<glyph unicode="v" glyph-name="v" horiz-adv-x="866" d="M127 600Q117 627 98 641T43 655H31V721H449V655H426Q352 655 352 612Q352 600 356 587T365 561L489 217L631 561Q635 573 639 589T643 616Q643 655 571 655H557V721H834V655H821Q750 655 713 567L469
-18H362L127 600Z" />
<glyph unicode="w" glyph-name="w" horiz-adv-x="1210" d="M20 721H428V655Q387 655 363 647T338 608Q338 590 352 549L473 201H477L602 602Q614 639 620 667T631 721H741Q743 698 749 666T766 602L903 205H905L1006 537Q1012 557 1017 578T1022 612Q1022 643
997 649T932 655V721H1190V655Q1155 655 1134 632T1094 561L899 -18H772L618 406H616L469 -18H350L113 586Q96 631 73 643T20 655V721Z" />
<glyph unicode="x" glyph-name="x" horiz-adv-x="866" d="M412 66Q438 68 460 72T483 98Q483 111 476 125T457 154L377 266L289 166Q274 150 263 134T252 102Q252 80 276 74T334 66V0H29V66Q51 68 83 78T152 127L334 319L172 549Q133 606 104 628T29 655V721H451V655Q416
651 402 641T387 618Q387 606 394 593T412 563L479 467L553 545Q580 573 588 588T596 618Q596 641 576 648T528 655V721H815V655Q791 651 767 642T709 602L516 408L690 178Q702 162 716 144T749 109T789 80T838 66V0H412V66Z" />
<glyph unicode="y" glyph-name="y" horiz-adv-x="866" d="M23 721H432V655Q346 655 346 612Q346 594 360 553L496 211L639 549Q645 569 648 583T651 606Q651 655 565 655V721H842V655Q801 655 775 637T723 563L471 -31Q449 -80 424 -127T367 -212T290 -272T186
-295Q113 -295 77 -263T41 -178Q41 -139 61 -111T123 -82Q158 -82 174 -96T203 -129T230 -162T268 -178Q299 -178 326 -150T369 -92L393 -45L117 592Q100 631 79 643T23 655V721Z" />
<glyph unicode="z" glyph-name="z" horiz-adv-x="690" d="M35 66L395 655H291Q250 655 220 641T168 601T129 541T100 467L41 483Q45 498 49 526T56 589T60 657T61 721H612L639 659L283 72H385Q446 72 482 90T537 138T567 203T588 268L657 256Q653 238 649 205T642
135T636 62T633 0H66L35 66Z" />
<glyph unicode="{" glyph-name="braceleft" horiz-adv-x="743" d="M573 -497Q485 -497 426 -486T325 -443T261 -350T240 -190V158Q240 212 236 253T218 324T177 374T101 410Q150 424 177 445T218 497T236 568T240 663V1012Q240 1111 261 1171T324 1263T426 1307T573
1318V1269Q499 1264 476 1201T453 1024V693Q453 576 410 508T255 413V408Q367 381 410 312T453 125V-203Q453 -317 476 -379T573 -448V-497Z" />
<glyph unicode="|" glyph-name="bar" horiz-adv-x="419" d="M140 1334H279V-505H140V1334Z" />
<glyph unicode="}" glyph-name="braceright" horiz-adv-x="743" d="M170 -448Q244 -442 267 -380T290 -203V125Q290 242 333 311T488 408V413Q376 440 333 508T290 693V1024Q290 1138 267 1201T170 1269V1318Q258 1318 317 1307T418 1264T482 1171T503 1012V663Q503
609 507 568T525 497T566 446T642 410Q593 395 566 375T525 324T507 253T503 158V-190Q503 -290 482 -350T419 -442T317 -486T170 -497V-448Z" />
<glyph unicode="~" glyph-name="asciitilde" horiz-adv-x="934" d="M106 385Q121 408 138 431T179 473T232 504T301 516Q346 516 392 500T483 463Q528 444 567 428T633 412Q680 412 711 445T770 520L827 406Q809 381 790 358T748 316T697 286T633 274Q584 274
545 290T465 328Q430 346 389 362T295 379Q268 379 249 369T213 343T185 309T164 268L106 385Z" />
</font>
</defs>
</svg>
