<?xml version="1.0" encoding="utf-8"?>
<!-- Generator: Adobe Illustrator 24.0.2, SVG Export Plug-In . SVG Version: 6.00 Build 0)  -->
<svg version="1.1" id="Layer_1" xmlns="http://www.w3.org/2000/svg" xmlns:xlink="http://www.w3.org/1999/xlink" x="0px" y="0px"
	 viewBox="0 0 24 24" style="enable-background:new 0 0 24 24;" xml:space="preserve">
<style type="text/css">
	.st0{clip-path:url(#SVGID_2_);}
	.st1{fill:#FEBF32;}
</style>
<g>
	<defs>
		<rect id="SVGID_1_" width="24" height="24"/>
	</defs>
	<clipPath id="SVGID_2_">
		<use xlink:href="#SVGID_1_"  style="overflow:visible;"/>
	</clipPath>
	<g id="conditioning" class="st0">
		<g id="air-conditioner" transform="translate(1 6)">
			<path id="Path_2647" class="st1" d="M17.3,9.6H4.7c-0.1,0-0.2,0.1-0.2,0.2v2.3c0,0.1,0.1,0.2,0.2,0.2h12.6c0.1,0,0.2-0.1,0.2-0.2
				V9.8C17.5,9.7,17.4,9.6,17.3,9.6z"/>
			<path id="Path_2648" class="st1" d="M19.3,0H2.8C1.2,0,0,1.2,0,2.8v2.5c0,0.1,0.1,0.2,0.2,0.2c0,0,0,0,0,0h19
				c0.4,0,0.7,0.3,0.7,0.7c0,0.4-0.3,0.7-0.7,0.7c0,0,0,0,0,0h-19C0.1,6.9,0,7,0,7.1c0,0,0,0,0,0v2.5c0,1.5,1.2,2.8,2.8,2.8h0.1
				c0.1,0,0.2-0.1,0.2-0.2l0,0V8.9c0-0.4,0.3-0.7,0.7-0.7c0,0,0,0,0,0h14.4c0.4,0,0.7,0.3,0.7,0.7c0,0,0,0,0,0v3.2
				c0,0.1,0.1,0.2,0.2,0.2l0,0h0.1c1.5,0,2.7-1.2,2.7-2.8V2.8C22,1.2,20.8,0,19.3,0z M15.8,3.8c-0.4,0-0.7-0.3-0.7-0.7
				s0.3-0.7,0.7-0.7c0.4,0,0.7,0.3,0.7,0.7C16.5,3.5,16.2,3.8,15.8,3.8C15.8,3.8,15.8,3.8,15.8,3.8z M18.6,3.8
				c-0.4,0-0.7-0.3-0.7-0.7c0-0.4,0.3-0.7,0.7-0.7c0.4,0,0.7,0.3,0.7,0.7C19.3,3.5,18.9,3.8,18.6,3.8L18.6,3.8L18.6,3.8z"/>
		</g>
	</g>
</g>
</svg>
