<?xml version="1.0" encoding="utf-8"?>
<!-- Generator: Adobe Illustrator 24.0.2, SVG Export Plug-In . SVG Version: 6.00 Build 0)  -->
<svg version="1.1" id="Layer_1" xmlns="http://www.w3.org/2000/svg" xmlns:xlink="http://www.w3.org/1999/xlink" x="0px" y="0px"
	 viewBox="0 0 24 24" style="enable-background:new 0 0 24 24;" xml:space="preserve">
<style type="text/css">
	.st0{clip-path:url(#SVGID_2_);}
	.st1{fill:#8D0300;}
	.st2{fill:#FFA000;stroke:#8D0300;stroke-miterlimit:10;}
</style>
<g>
	<defs>
		<rect id="SVGID_1_" width="24" height="24"/>
	</defs>
	<clipPath id="SVGID_2_">
		<use xlink:href="#SVGID_1_"  style="overflow:visible;"/>
	</clipPath>
	<g id="price" class="st0">
		<g id="dollar" transform="translate(2.37 2.146)">
			<path id="Path_2793" class="st1" d="M10,20C4.5,20,0,15.5,0,10c0-2.7,1.1-5.2,2.9-7.1C6.9-1,13.2-0.9,17.1,3
				c3.9,3.9,3.9,10.2,0,14.1C15.2,19,12.7,20,10,20z M10,1.2c-4.8,0-8.8,3.9-8.8,8.8s3.9,8.8,8.8,8.8s8.8-3.9,8.8-8.8
				C18.7,5.2,14.8,1.3,10,1.2z"/>
			<path id="Path_2794" class="st2" d="M10,9.4c-0.9,0-1.6-0.7-1.6-1.6c0-0.9,0.7-1.6,1.6-1.6c0.9,0,1.6,0.7,1.6,1.6c0,0,0,0,0,0
				c0,0.3,0.3,0.6,0.6,0.6s0.6-0.3,0.6-0.6c0-1.3-0.9-2.4-2.2-2.7V4.4c0-0.3-0.3-0.6-0.6-0.6S9.4,4,9.4,4.4v0.7
				C7.9,5.4,6.9,6.9,7.3,8.4c0.3,1.3,1.4,2.2,2.7,2.2c0.9,0,1.6,0.7,1.6,1.6c0,0.9-0.7,1.6-1.6,1.6c-0.9,0-1.6-0.7-1.6-1.6
				c0,0,0,0,0,0c0-0.3-0.3-0.6-0.6-0.6s-0.6,0.3-0.6,0.6c0,1.3,0.9,2.4,2.2,2.7v0.7c0,0.3,0.3,0.6,0.6,0.6s0.6-0.3,0.6-0.6v-0.7
				c1.5-0.3,2.5-1.9,2.1-3.4C12.5,10.3,11.3,9.4,10,9.4L10,9.4z"/>
		</g>
	</g>
</g>
</svg>
