<?xml version="1.0" encoding="utf-8"?>
<!-- Generator: Adobe Illustrator 24.0.2, SVG Export Plug-In . SVG Version: 6.00 Build 0)  -->
<svg version="1.1" id="Layer_1" xmlns="http://www.w3.org/2000/svg" xmlns:xlink="http://www.w3.org/1999/xlink" x="0px" y="0px"
	 viewBox="0 0 24 24" style="enable-background:new 0 0 24 24;" xml:space="preserve">
<style type="text/css">
	.st0{clip-path:url(#SVGID_2_);}
	.st1{fill:#FEBF32;}
</style>
<g>
	<defs>
		<rect id="SVGID_1_" width="24" height="24"/>
	</defs>
	<clipPath id="SVGID_2_">
		<use xlink:href="#SVGID_1_"  style="overflow:visible;"/>
	</clipPath>
	<g id="Electricity" class="st0">
		<g id="lamp" transform="translate(1 1)">
			<path id="Path_2447" class="st1" d="M11,3.2c-0.4,0-0.7-0.3-0.7-0.7V0.7C10.3,0.3,10.6,0,11,0c0.4,0,0.6,0.3,0.7,0.7v1.8
				C11.7,2.9,11.4,3.2,11,3.2z"/>
			<path id="Path_2448" class="st1" d="M17,5.7c-0.4,0-0.7-0.3-0.7-0.7c0-0.2,0.1-0.4,0.2-0.5l1.3-1.3c0.3-0.3,0.7-0.3,1,0
				s0.3,0.7,0,1l0,0l-1.3,1.3C17.4,5.6,17.2,5.7,17,5.7z"/>
			<path id="Path_2449" class="st1" d="M21.3,11.7h-1.8c-0.4,0-0.7-0.3-0.7-0.7s0.3-0.7,0.7-0.7h1.8c0.4,0,0.7,0.3,0.7,0.7
				C22,11.4,21.7,11.7,21.3,11.7C21.3,11.7,21.3,11.7,21.3,11.7z"/>
			<path id="Path_2450" class="st1" d="M18.3,19c-0.2,0-0.4-0.1-0.5-0.2l-1.3-1.3c-0.3-0.3-0.3-0.7,0-1s0.7-0.3,1,0l1.3,1.3
				c0.3,0.3,0.3,0.7,0,1C18.7,18.9,18.5,19,18.3,19L18.3,19z"/>
			<path id="Path_2451" class="st1" d="M3.7,19C3.3,19,3,18.7,3,18.3c0-0.2,0.1-0.4,0.2-0.5l1.3-1.3c0.3-0.3,0.7-0.3,1,0
				c0.3,0.3,0.3,0.7,0,1l-1.3,1.3C4.1,18.9,3.9,19,3.7,19z"/>
			<path id="Path_2452" class="st1" d="M2.5,11.7H0.7C0.3,11.7,0,11.4,0,11c0-0.4,0.3-0.6,0.7-0.7h1.8c0.4,0,0.7,0.3,0.7,0.7
				C3.1,11.4,2.8,11.7,2.5,11.7z"/>
			<path id="Path_2453" class="st1" d="M5,5.7c-0.2,0-0.4-0.1-0.5-0.2L3.2,4.2C3,3.9,3,3.5,3.3,3.2C3.6,3,3.9,3,4.2,3.2l1.3,1.3
				c0.3,0.3,0.3,0.7,0,1C5.3,5.6,5.2,5.7,5,5.7L5,5.7z"/>
			<path id="Path_2454" class="st1" d="M13.8,19.3v1.1c0,0.9-0.7,1.6-1.6,1.6H9.9c-0.9,0-1.6-0.8-1.6-1.7c0,0,0-0.1,0-0.1v-0.9H13.8
				z"/>
			<path id="Path_2455" class="st1" d="M15,6c-2.7-2.2-6.8-1.8-9,0.9s-1.8,6.8,0.9,9C7,16,7.1,16.1,7.1,16.1c0.6,0.4,0.9,1.1,1,1.8
				v0c0,0,0,0,0.1,0h5.5c0,0,0,0,0,0v0c0.2-0.7,0.6-1.4,1.2-1.8c2.8-2.2,3.3-6.2,1.1-9C15.7,6.7,15.4,6.3,15,6z M14.4,11.5
				c-0.4,0-0.7-0.3-0.7-0.7c0-1.4-1.1-2.5-2.5-2.5c0,0,0,0,0,0c-0.4,0-0.7-0.3-0.7-0.7c0-0.4,0.3-0.6,0.7-0.7c2.2,0,3.9,1.7,3.9,3.9
				C15.1,11.2,14.8,11.5,14.4,11.5L14.4,11.5z"/>
			<path id="Path_2456" class="st1" d="M8.2,17.9L8.2,17.9C8.2,17.9,8.2,17.9,8.2,17.9L8.2,17.9z"/>
			<path id="Path_2457" class="st1" d="M13.8,17.9L13.8,17.9C13.8,17.9,13.8,17.9,13.8,17.9L13.8,17.9z"/>
		</g>
	</g>
</g>
</svg>
