<?xml version="1.0" encoding="utf-8"?>
<!-- Generator: Adobe Illustrator 24.0.2, SVG Export Plug-In . SVG Version: 6.00 Build 0)  -->
<svg version="1.1" id="Layer_1" xmlns="http://www.w3.org/2000/svg" xmlns:xlink="http://www.w3.org/1999/xlink" x="0px" y="0px"
	 viewBox="0 0 24 24" style="enable-background:new 0 0 24 24;" xml:space="preserve">
<style type="text/css">
	.st0{clip-path:url(#SVGID_2_);}
	.st1{fill:#8D0300;}
	.st2{fill:#8D0300;stroke:#FEBF32;stroke-miterlimit:10;}
</style>
<g>
	<defs>
		<rect id="SVGID_1_" width="24" height="24"/>
	</defs>
	<clipPath id="SVGID_2_">
		<use xlink:href="#SVGID_1_"  style="overflow:visible;"/>
	</clipPath>
	<g id="happy" class="st0">
		<g id="happy-2" transform="translate(2.37 2.954)">
			<path id="Path_2778" class="st1" d="M10.3,4c-4.4,0-8,3.6-8,8s3.6,8,8,8s8-3.6,8-8C18.3,7.6,14.7,4,10.3,4z M10.3,18.8
				c-3.8,0-6.8-3.1-6.8-6.8s3.1-6.8,6.8-6.8c3.8,0,6.8,3.1,6.8,6.8C17.1,15.8,14.1,18.8,10.3,18.8z"/>
			<path id="Path_2779" class="st1" d="M13.8,13.5c-0.2-0.2-0.6-0.2-0.8,0.1c-1.3,1.5-3.5,1.6-5,0.4c-0.1-0.1-0.3-0.2-0.4-0.4
				c-0.2-0.2-0.6-0.3-0.8,0c-0.2,0.2-0.3,0.6-0.1,0.8c1.7,2,4.6,2.2,6.6,0.5c0.2-0.2,0.4-0.3,0.5-0.5C14.1,14.1,14,13.7,13.8,13.5z"
				/>
			<path id="Path_2780" class="st2" d="M7.1,11.1c0.3,0,0.6-0.3,0.6-0.6c0-0.2,0.2-0.3,0.4-0.3c0.2,0,0.3,0.1,0.3,0.3
				c0,0.3,0.3,0.6,0.6,0.6c0.3,0,0.6-0.3,0.6-0.6C9.5,9.7,8.8,9,7.9,9c-0.8,0-1.5,0.7-1.5,1.5C6.5,10.8,6.7,11.1,7.1,11.1z"/>
			<path id="Path_2781" class="st2" d="M12.6,9c-0.8,0-1.5,0.7-1.5,1.5c0,0.3,0.3,0.6,0.6,0.6c0.3,0,0.6-0.3,0.6-0.6
				c0-0.2,0.1-0.3,0.3-0.4c0.2,0,0.3,0.1,0.4,0.3c0,0,0,0,0,0c0,0.3,0.3,0.6,0.6,0.6c0.3,0,0.6-0.3,0.6-0.6C14.1,9.7,13.5,9,12.6,9z
				"/>
			<path id="Path_2782" class="st2" d="M15.1,3.3H16c0.3,0,0.6-0.3,0.6-0.6c0-0.3-0.3-0.6-0.6-0.6h-0.9c-0.3,0-0.6,0.3-0.6,0.6
				C14.5,3,14.8,3.3,15.1,3.3z"/>
			<path id="Path_2783" class="st2" d="M17.3,5.4c0.3,0,0.6-0.3,0.6-0.6V4c0-0.3-0.3-0.6-0.6-0.6c-0.3,0-0.6,0.3-0.6,0.6v0.9
				C16.7,5.1,17,5.4,17.3,5.4z"/>
			<path id="Path_2784" class="st2" d="M19.4,2.1h-0.9c-0.3,0-0.6,0.3-0.6,0.6c0,0.3,0.3,0.6,0.6,0.6h0.9C19.7,3.3,20,3,20,2.7
				C20,2.4,19.7,2.1,19.4,2.1L19.4,2.1z"/>
			<path id="Path_2785" class="st2" d="M17.3,2c0.3,0,0.6-0.3,0.6-0.6V0.6c0-0.3-0.3-0.6-0.6-0.6s-0.6,0.3-0.6,0.6c0,0,0,0,0,0v0.9
				C16.7,1.8,17,2,17.3,2z"/>
			<path id="Path_2786" class="st2" d="M1.3,2.9H0.6C0.3,2.9,0,3.2,0,3.5s0.3,0.6,0.6,0.6c0,0,0,0,0,0h0.7c0.3,0,0.6-0.3,0.6-0.6
				C1.9,3.2,1.6,2.9,1.3,2.9C1.3,2.9,1.3,2.9,1.3,2.9z"/>
			<path id="Path_2787" class="st2" d="M3.1,5.4V4.7c0-0.3-0.3-0.6-0.6-0.6c-0.3,0-0.6,0.3-0.6,0.6v0.7C1.9,5.7,2.2,6,2.5,6
				C2.8,6,3.1,5.7,3.1,5.4L3.1,5.4z"/>
			<path id="Path_2788" class="st2" d="M3.7,4.1h0.7C4.7,4.1,5,3.8,5,3.5c0-0.3-0.3-0.6-0.6-0.6H3.7c-0.3,0-0.6,0.3-0.6,0.6
				C3.1,3.8,3.4,4.1,3.7,4.1z"/>
			<path id="Path_2789" class="st2" d="M2.5,2.9c0.3,0,0.6-0.3,0.6-0.6V1.6C3.1,1.3,2.8,1,2.5,1C2.2,1,1.9,1.3,1.9,1.6v0.7
				C1.9,2.6,2.2,2.9,2.5,2.9C2.5,2.9,2.5,2.9,2.5,2.9z"/>
		</g>
	</g>
</g>
</svg>
