<?xml version="1.0" encoding="utf-8"?>
<!-- Generator: Adobe Illustrator 24.0.2, SVG Export Plug-In . SVG Version: 6.00 Build 0)  -->
<svg version="1.1" id="Layer_1" xmlns="http://www.w3.org/2000/svg" xmlns:xlink="http://www.w3.org/1999/xlink" x="0px" y="0px"
	 viewBox="0 0 24 24" style="enable-background:new 0 0 24 24;" xml:space="preserve">
<style type="text/css">
	.st0{clip-path:url(#SVGID_2_);}
	.st1{fill:#FEBF32;}
</style>
<g>
	<defs>
		<rect id="SVGID_1_" width="24" height="24"/>
	</defs>
	<clipPath id="SVGID_2_">
		<use xlink:href="#SVGID_1_"  style="overflow:visible;"/>
	</clipPath>
	<g id="Insects" class="st0">
		<g id="bug-spray" transform="translate(-28 2)">
			<path id="Path_2659" class="st1" d="M39,6.1h1.2c0.3,0,0.5-0.2,0.6-0.4l0.6-1.9h0.6v0.4c0,0.3,0.3,0.6,0.6,0.6h4.7
				c0.3,0,0.6-0.3,0.6-0.6V2c0-0.3-0.3-0.6-0.6-0.6h-7.8v2.3h0.8l-0.4,1.2H39c-0.3,0-0.6,0.3-0.6,0.6C38.4,5.8,38.7,6.1,39,6.1
				L39,6.1z"/>
			<path id="Path_2660" class="st1" d="M42.7,5.9H47v1.3h-4.3V5.9z"/>
			<path id="Path_2661" class="st1" d="M38.2,1.4h-1.2c-0.3,0-0.6,0.3-0.6,0.6v1.2c0,0.3,0.3,0.6,0.6,0.6h1.2V1.4z"/>
			<path id="Path_2662" class="st1" d="M35.2,0.8l-0.8-0.2c-0.3-0.1-0.6,0.1-0.7,0.5c-0.1,0.3,0.1,0.6,0.4,0.7L35,1.9
				c0.3,0.1,0.6-0.1,0.7-0.5C35.7,1.2,35.5,0.9,35.2,0.8z"/>
			<path id="Path_2663" class="st1" d="M32.5,0.2L31.7,0c-0.3-0.1-0.6,0.1-0.7,0.5c-0.1,0.3,0.1,0.6,0.4,0.7l0.8,0.2
				c0.3,0.1,0.6-0.1,0.7-0.4S32.8,0.3,32.5,0.2C32.5,0.2,32.5,0.2,32.5,0.2z"/>
			<path id="Path_2664" class="st1" d="M35,3.1l-0.8,0.2c-0.3,0.1-0.5,0.4-0.5,0.7s0.4,0.5,0.7,0.5c0,0,0,0,0,0l0.8-0.2
				c0.3-0.1,0.5-0.4,0.4-0.7C35.6,3.3,35.3,3.1,35,3.1z"/>
			<path id="Path_2665" class="st1" d="M32.2,3.8l-0.8,0.2C31.1,4,30.9,4.3,31,4.6c0.1,0.3,0.4,0.5,0.7,0.5c0,0,0,0,0,0l0.8-0.2
				c0.3-0.1,0.5-0.4,0.5-0.7C32.9,3.9,32.6,3.7,32.2,3.8C32.2,3.7,32.2,3.7,32.2,3.8z"/>
			<ellipse id="Ellipse_39" class="st1" cx="43.3" cy="14.5" rx="1" ry="1.8"/>
			<path id="Path_2666" class="st1" d="M48,8.3h-4.7c-2.9,0-5.3,2.4-5.3,5.3v5.9c0,0.3,0.3,0.6,0.6,0.6H48c0.3,0,0.6-0.3,0.6-0.6
				V8.9C48.6,8.5,48.3,8.3,48,8.3z M46,15.1h-0.6c0,0.2-0.1,0.5-0.2,0.7l0.8,0.8c0.2,0.2,0.2,0.6,0,0.8s-0.6,0.2-0.8,0l-0.6-0.6
				c-0.6,0.7-1.7,0.8-2.5,0.2C42.1,17,42,16.9,42,16.9l-0.6,0.6c-0.2,0.2-0.6,0.2-0.8,0s-0.2-0.6,0-0.8l0.8-0.8
				c-0.1-0.2-0.1-0.5-0.2-0.7h-0.6c-0.3,0-0.6-0.3-0.6-0.6c0-0.3,0.3-0.6,0.6-0.6h0.6c0-0.2,0.1-0.5,0.2-0.7l-0.8-0.8
				c-0.2-0.2-0.2-0.6,0-0.8s0.6-0.2,0.8,0l0.6,0.6c0.2-0.2,0.5-0.4,0.7-0.5v-0.9c0-0.3,0.3-0.6,0.6-0.6c0.3,0,0.6,0.3,0.6,0.6v0.9
				c0.3,0.1,0.5,0.3,0.7,0.5l0.6-0.6c0.2-0.2,0.6-0.2,0.8,0s0.2,0.6,0,0.8l-0.8,0.8c0.1,0.2,0.1,0.5,0.2,0.7H46
				c0.3,0,0.6,0.3,0.6,0.6C46.6,14.9,46.4,15.1,46,15.1L46,15.1z"/>
		</g>
	</g>
</g>
</svg>
