<?xml version="1.0" encoding="utf-8"?>
<!-- Generator: Adobe Illustrator 24.0.2, SVG Export Plug-In . SVG Version: 6.00 Build 0)  -->
<svg version="1.1" id="Layer_1" xmlns="http://www.w3.org/2000/svg" xmlns:xlink="http://www.w3.org/1999/xlink" x="0px" y="0px"
	 viewBox="0 0 24 24" style="enable-background:new 0 0 24 24;" xml:space="preserve">
<style type="text/css">
	.st0{clip-path:url(#SVGID_2_);}
	.st1{fill:#FFA000;}
	.st2{fill:#8D0300;}
</style>
<g>
	<defs>
		<rect id="SVGID_1_" width="24" height="24"/>
	</defs>
	<clipPath id="SVGID_2_">
		<use xlink:href="#SVGID_1_"  style="overflow:visible;"/>
	</clipPath>
	<g id="quality" class="st0">
		<g id="badge" transform="translate(2.427 2.203)">
			<g id="Group_1928">
				<g id="Group_1927">
					<path id="Path_2773" class="st1" d="M13.7,4.8c-0.4-0.3-0.8-0.5-1.2-0.7L12,5.3c0.3,0.1,0.7,0.3,1,0.5L13.7,4.8z"/>
					<path id="Path_2774" class="st1" d="M15.6,6.9c-0.2-0.4-0.5-0.8-0.8-1.1l-0.9,0.8c0.3,0.3,0.5,0.6,0.7,0.9L15.6,6.9z"/>
					<path id="Path_2775" class="st2" d="M14.9,8.6c0.8,2.7-0.8,5.5-3.4,6.3c-2.7,0.8-5.5-0.8-6.3-3.4C4.3,8.7,5.9,5.9,8.6,5.1
						c0.7-0.2,1.5-0.3,2.3-0.1l0.2-1.3c-0.4-0.1-0.7-0.1-1.1-0.1c-3.5,0-6.3,2.8-6.3,6.4c0,3.5,2.8,6.3,6.4,6.3
						c3.5,0,6.3-2.8,6.3-6.4c0-0.6-0.1-1.2-0.3-1.8L14.9,8.6z"/>
					<path id="Path_2776" class="st2" d="M20,10l-1.6-2.2L18.7,5l-2.5-1.1L15,1.3l-2.8,0.3L10,0L7.8,1.6L5,1.3L3.9,3.9L1.3,5
						l0.3,2.8L0,10l1.6,2.2L1.3,15l2.5,1.1L5,18.7l2.8-0.3L10,20l2.2-1.6l2.8,0.3l1.1-2.5l2.5-1.1l-0.3-2.8L20,10z M15.2,15.2
						l-1,2.1l-2.3-0.2L10,18.4l-1.9-1.4l-2.3,0.2l-1-2.1l-2.1-1l0.2-2.3L1.6,10l1.4-1.9L2.7,5.8l2.1-1l1-2.1l2.3,0.2L10,1.6l1.9,1.4
						l2.3-0.2l1,2.1l2.1,1l-0.2,2.3l1.4,1.9l-1.4,1.9l0.2,2.3L15.2,15.2z"/>
					<path id="Path_2777" class="st1" d="M7.3,9.6l-0.9,0.9l2.4,2.4L13,8.5l-0.9-0.9L8.7,11L7.3,9.6z"/>
				</g>
			</g>
		</g>
	</g>
</g>
</svg>
