<?xml version="1.0" encoding="utf-8"?>
<!-- Generator: Adobe Illustrator 24.0.2, SVG Export Plug-In . SVG Version: 6.00 Build 0)  -->
<svg version="1.1" id="Layer_1" xmlns="http://www.w3.org/2000/svg" xmlns:xlink="http://www.w3.org/1999/xlink" x="0px" y="0px"
	 viewBox="0 0 24 24" style="enable-background:new 0 0 24 24;" xml:space="preserve">
<style type="text/css">
	.st0{clip-path:url(#SVGID_2_);}
	.st1{fill:#8D0300;stroke:#FEBF32;stroke-miterlimit:10;}
	.st2{fill:#8D0300;}
</style>
<g>
	<defs>
		<rect id="SVGID_1_" width="24" height="24"/>
	</defs>
	<clipPath id="SVGID_2_">
		<use xlink:href="#SVGID_1_"  style="overflow:visible;"/>
	</clipPath>
	<g id="time" class="st0">
		<g id="clock" transform="translate(2.427 2.146)">
			<g id="Group_1930" transform="translate(9.225 4.64)">
				<g id="Group_1929">
					<path id="Path_2791" class="st1" d="M4.3,7.1L1.5,5V0.8C1.5,0.3,1.2,0,0.7,0C0.3,0,0,0.4,0,0.8v4.6C0,5.7,0.1,5.9,0.3,6
						l3.1,2.3c0.4,0.2,0.8,0.2,1.1-0.2C4.7,7.8,4.7,7.4,4.3,7.1L4.3,7.1z"/>
				</g>
			</g>
			<g id="Group_1932">
				<g id="Group_1931">
					<path id="Path_2792" class="st2" d="M10,0C4.5,0,0,4.5,0,10s4.5,10,10,10s10-4.5,10-10C20,4.5,15.5,0,10,0z M10,18.5
						c-4.7,0-8.5-3.8-8.5-8.5S5.3,1.5,10,1.5s8.5,3.8,8.5,8.5C18.4,14.7,14.7,18.4,10,18.5z"/>
				</g>
			</g>
		</g>
	</g>
</g>
</svg>
